<svg width="530" height="52" viewBox="0 0 530 52" fill="none" xmlns="http://www.w3.org/2000/svg">
<path d="M42.5 24.26H43.5V23.26H42.5V24.26ZM32.48 24.26V23.26H31.48V24.26H32.48ZM32.48 17.54H31.48V18.54H32.48V17.54ZM42.5 17.54V18.54H43.5V17.54H42.5ZM21.98 42.6C28.4038 42.6 33.7764 41.0026 37.5652 37.9875C41.3798 34.9518 43.5 30.5467 43.5 25.16H41.5C41.5 29.9733 39.6302 33.7882 36.3198 36.4225C32.9836 39.0774 28.0962 40.6 21.98 40.6V42.6ZM43.5 25.16V24.26H41.5V25.16H43.5ZM42.5 23.26H32.48V25.26H42.5V23.26ZM31.48 24.26V25.16H33.48V24.26H31.48ZM31.48 25.16C31.48 27.6049 30.7952 29.2093 29.4525 30.2495C28.0506 31.3357 25.7434 31.96 22.16 31.96V33.96C25.8966 33.96 28.7494 33.3243 30.6775 31.8305C32.6648 30.2907 33.48 27.9951 33.48 25.16H31.48ZM22.16 31.96C17.8206 31.96 15.1319 31.1822 13.494 29.5699C11.8599 27.9612 11.04 25.292 11.04 20.9H9.04C9.04 25.448 9.87006 28.8088 12.091 30.9951C14.3081 33.1778 17.6794 33.96 22.16 33.96V31.96ZM11.04 20.9C11.04 16.508 11.8599 13.8388 13.494 12.2301C15.1319 10.6178 17.8206 9.84 22.16 9.84V7.84C17.6794 7.84 14.3081 8.62223 12.091 10.8049C9.87006 12.9912 9.04 16.352 9.04 20.9H11.04ZM22.16 9.84C25.7434 9.84 28.0506 10.4643 29.4525 11.5505C30.7952 12.5907 31.48 14.1951 31.48 16.64H33.48C33.48 13.8049 32.6648 11.5093 30.6775 9.9695C28.7494 8.4757 25.8966 7.84 22.16 7.84V9.84ZM31.48 16.64V17.54H33.48V16.64H31.48ZM32.48 18.54H42.5V16.54H32.48V18.54ZM43.5 17.54V16.64H41.5V17.54H43.5ZM43.5 16.64C43.5 11.2508 41.3629 6.84625 37.5419 3.81189C33.7464 0.797864 28.3748 -0.8 21.98 -0.8V1.2C28.0652 1.2 32.9536 2.72213 36.2981 5.37811C39.6171 8.01375 41.5 11.8292 41.5 16.64H43.5ZM21.98 -0.8C15.1436 -0.8 9.50513 1.30708 5.57061 5.13032C1.63347 8.95611 -0.5 14.4061 -0.5 20.9H1.5C1.5 14.8539 3.47653 9.95389 6.96439 6.56467C10.4549 3.17291 15.5564 1.2 21.98 1.2V-0.8ZM-0.5 20.9C-0.5 27.3939 1.63347 32.8439 5.57061 36.6697C9.50513 40.4929 15.1436 42.6 21.98 42.6V40.6C15.5564 40.6 10.4549 38.6271 6.96439 35.2353C3.47653 31.8461 1.5 26.9461 1.5 20.9H-0.5ZM63.02 42.6C68.346 42.6 72.8913 41.0098 76.1176 38.0973C79.354 35.1756 81.18 30.9965 81.18 26H79.18C79.18 30.4835 77.556 34.1044 74.7774 36.6127C71.9887 39.1302 67.954 40.6 63.02 40.6V42.6ZM81.18 26C81.18 20.9467 79.3562 16.7514 76.1176 13.8277C72.8898 10.9139 68.3435 9.34 63.02 9.34V11.34C67.9565 11.34 71.9902 12.7961 74.7774 15.3123C77.5538 17.8186 79.18 21.4533 79.18 26H81.18ZM63.02 9.34C57.6965 9.34 53.1502 10.9139 49.9224 13.8277C46.6838 16.7514 44.86 20.9467 44.86 26H46.86C46.86 21.4533 48.4862 17.8186 51.2626 15.3123C54.0498 12.7961 58.0835 11.34 63.02 11.34V9.34ZM44.86 26C44.86 30.9965 46.686 35.1756 49.9224 38.0973C53.1487 41.0098 57.694 42.6 63.02 42.6V40.6C58.086 40.6 54.0513 39.1302 51.2626 36.6127C48.484 34.1044 46.86 30.4835 46.86 26H44.86ZM63.02 32.62C60.0474 32.62 58.3181 32.0439 57.3094 31.0705C56.3115 30.1073 55.8 28.5417 55.8 26H53.8C53.8 28.7383 54.3385 30.9827 55.9206 32.5095C57.4919 34.0261 59.8726 34.62 63.02 34.62V32.62ZM55.8 26C55.8 23.4592 56.3111 21.8563 57.318 20.8612C58.3294 19.8615 60.0584 19.26 63.02 19.26V17.26C59.8616 17.26 57.4806 17.8885 55.912 19.4388C54.3389 20.9937 53.8 23.2608 53.8 26H55.8ZM63.02 19.26C65.9487 19.26 67.6809 19.8603 68.7016 20.8633C69.7166 21.8606 70.24 23.4655 70.24 26H72.24C72.24 23.2545 71.6834 20.9894 70.1034 19.4367C68.5291 17.8897 66.1513 17.26 63.02 17.26V19.26ZM70.24 26C70.24 28.5353 69.7163 30.103 68.7101 31.0684C67.6923 32.0451 65.9597 32.62 63.02 32.62V34.62C66.1403 34.62 68.5177 34.0249 70.0949 32.5116C71.6837 30.987 72.24 28.7447 72.24 26H70.24ZM106.835 41V42H107.478L107.745 41.4157L106.835 41ZM120.575 10.94L121.485 11.3557L122.132 9.94H120.575V10.94ZM110.735 10.94V9.94H110.074L109.815 10.5486L110.735 10.94ZM101.675 32.24V33.24H102.337L102.596 32.6314L101.675 32.24ZM101.075 32.24L100.154 32.6292L100.412 33.24H101.075V32.24ZM92.0755 10.94L92.9966 10.5508L92.7385 9.94H92.0755V10.94ZM82.0555 10.94V9.94H80.5017L81.1453 11.3542L82.0555 10.94ZM95.7355 41L94.8253 41.4142L95.0919 42H95.7355V41ZM107.745 41.4157L121.485 11.3557L119.666 10.5243L105.926 40.5843L107.745 41.4157ZM120.575 9.94H110.735V11.94H120.575V9.94ZM109.815 10.5486L100.755 31.8486L102.596 32.6314L111.656 11.3314L109.815 10.5486ZM101.675 31.24H101.075V33.24H101.675V31.24ZM101.997 31.8508L92.9966 10.5508L91.1543 11.3292L100.154 32.6292L101.997 31.8508ZM92.0755 9.94H82.0555V11.94H92.0755V9.94ZM81.1453 11.3542L94.8253 41.4142L96.6456 40.5858L82.9656 10.5258L81.1453 11.3542ZM95.7355 42H106.835V40H95.7355V42ZM155.412 29.84H156.412V28.84H155.412V29.84ZM146.412 29.84V28.84H145.412V29.84H146.412ZM130.992 27.8V26.8H129.938L129.993 27.8519L130.992 27.8ZM155.472 27.8V28.8H156.361L156.465 27.9168L155.472 27.8ZM147.072 23.06V24.06H148.134L148.07 22.9995L147.072 23.06ZM131.112 23.06L130.117 22.9529L129.998 24.06H131.112V23.06ZM139.512 42.6C144.429 42.6 148.621 41.4263 151.614 39.3204C154.63 37.1991 156.412 34.1342 156.412 30.5H154.412C154.412 33.4058 153.013 35.8909 150.464 37.6846C147.892 39.4937 144.135 40.6 139.512 40.6V42.6ZM156.412 30.5V29.84H154.412V30.5H156.412ZM155.412 28.84H146.412V30.84H155.412V28.84ZM145.412 29.84V30.44H147.412V29.84H145.412ZM145.412 30.44C145.412 30.9658 145.317 31.3675 145.152 31.6832C144.99 31.9919 144.731 32.2758 144.306 32.526C143.413 33.0526 141.838 33.4 139.212 33.4V35.4C141.925 35.4 143.95 35.0574 145.322 34.249C146.03 33.8316 146.569 33.2868 146.923 32.6112C147.274 31.9425 147.412 31.2042 147.412 30.44H145.412ZM139.212 33.4C136.375 33.4 134.671 32.9092 133.646 32.0617C132.657 31.2444 132.103 29.9272 131.99 27.7481L129.993 27.8519C130.12 30.2928 130.766 32.2755 132.372 33.6033C133.942 34.9008 136.228 35.4 139.212 35.4V33.4ZM130.992 28.8H155.472V26.8H130.992V28.8ZM156.465 27.9168C156.581 26.9281 156.712 26.074 156.712 24.92H154.712C154.712 25.926 154.602 26.6319 154.478 27.6832L156.465 27.9168ZM156.712 24.92C156.712 19.9625 154.981 16.024 151.864 13.3398C148.768 10.6731 144.416 9.34 139.332 9.34V11.34C144.087 11.34 147.925 12.5869 150.559 14.8552C153.172 17.106 154.712 20.4575 154.712 24.92H156.712ZM139.332 9.34C134.179 9.34 129.75 10.9192 126.6 13.8362C123.441 16.7608 121.652 20.9529 121.652 26H123.652C123.652 21.4471 125.252 17.8092 127.958 15.3038C130.673 12.7908 134.584 11.34 139.332 11.34V9.34ZM121.652 26C121.652 31.5649 123.443 35.7671 126.67 38.561C129.873 41.3344 134.353 42.6 139.512 42.6V40.6C134.651 40.6 130.7 39.4056 127.979 37.049C125.28 34.7129 123.652 31.1151 123.652 26H121.652ZM139.152 18.36C141.716 18.36 143.381 18.7891 144.417 19.5362C145.395 20.2416 145.966 21.3449 146.073 23.1205L148.07 22.9995C147.937 20.8151 147.188 19.0684 145.586 17.9138C144.043 16.8009 141.867 16.36 139.152 16.36V18.36ZM147.072 22.06H131.112V24.06H147.072V22.06ZM132.106 23.1671C132.296 21.3988 132.883 20.2771 133.874 19.5564C134.912 18.8021 136.563 18.36 139.152 18.36V16.36C136.4 16.36 134.241 16.8179 132.699 17.9386C131.11 19.0928 130.347 20.8212 130.117 22.9529L132.106 23.1671ZM169.128 41V42H170.128V41H169.128ZM179.568 25.82H178.568V26.82H179.568V25.82ZM188.568 25.82V26.82H189.568V25.82H188.568ZM169.008 18.92V19.92H169.85L169.994 19.0903L169.008 18.92ZM168.468 18.92H167.468V19.92H168.468V18.92ZM168.468 10.94H169.468V9.94H168.468V10.94ZM160.128 10.94V9.94H159.128V10.94H160.128ZM160.128 41H159.128V42H160.128V41ZM170.128 41V23.6H168.128V41H170.128ZM170.128 23.6C170.128 21.802 170.477 20.7019 171.087 20.0396C171.679 19.3958 172.71 18.96 174.588 18.96V16.96C172.446 16.96 170.747 17.4542 169.615 18.6854C168.499 19.8981 168.128 21.618 168.128 23.6H170.128ZM174.588 18.96C176.324 18.96 177.243 19.3083 177.75 19.8064C178.252 20.2986 178.568 21.1495 178.568 22.7H180.568C180.568 20.9505 180.224 19.4314 179.151 18.3786C178.084 17.3317 176.512 16.96 174.588 16.96V18.96ZM178.568 22.7V25.82H180.568V22.7H178.568ZM179.568 26.82H188.568V24.82H179.568V26.82ZM189.568 25.82V20.84H187.568V25.82H189.568ZM189.568 20.84C189.568 17.7616 188.848 14.8834 187.125 12.7558C185.375 10.5938 182.698 9.34 179.088 9.34V11.34C182.198 11.34 184.261 12.3962 185.571 14.0142C186.908 15.6665 187.568 18.0383 187.568 20.84H189.568ZM179.088 9.34C175.841 9.34 173.277 10.3427 171.411 12.0744C169.556 13.7947 168.471 16.1584 168.023 18.7497L169.994 19.0903C170.386 16.8216 171.31 14.8953 172.771 13.5406C174.219 12.1973 176.275 11.34 179.088 11.34V9.34ZM169.008 17.92H168.468V19.92H169.008V17.92ZM169.468 18.92V10.94H167.468V18.92H169.468ZM168.468 9.94H160.128V11.94H168.468V9.94ZM159.128 10.94V41H161.128V10.94H159.128ZM160.128 42H169.128V40H160.128V42ZM224.287 29.84H225.287V28.84H224.287V29.84ZM215.287 29.84V28.84H214.287V29.84H215.287ZM199.867 27.8V26.8H198.814L198.869 27.8519L199.867 27.8ZM224.347 27.8V28.8H225.237L225.34 27.9168L224.347 27.8ZM215.947 23.06V24.06H217.01L216.946 22.9995L215.947 23.06ZM199.987 23.06L198.993 22.9529L198.874 24.06H199.987V23.06ZM208.387 42.6C213.304 42.6 217.497 41.4263 220.49 39.3204C223.506 37.1991 225.287 34.1342 225.287 30.5H223.287C223.287 33.4058 221.889 35.8909 219.339 37.6846C216.768 39.4937 213.01 40.6 208.387 40.6V42.6ZM225.287 30.5V29.84H223.287V30.5H225.287ZM224.287 28.84H215.287V30.84H224.287V28.84ZM214.287 29.84V30.44H216.287V29.84H214.287ZM214.287 30.44C214.287 30.9658 214.193 31.3675 214.027 31.6832C213.866 31.9919 213.607 32.2758 213.182 32.526C212.289 33.0526 210.714 33.4 208.087 33.4V35.4C210.8 35.4 212.826 35.0574 214.198 34.249C214.906 33.8316 215.445 33.2868 215.799 32.6112C216.149 31.9425 216.287 31.2042 216.287 30.44H214.287ZM208.087 33.4C205.251 33.4 203.547 32.9092 202.522 32.0617C201.533 31.2444 200.979 29.9272 200.866 27.7481L198.869 27.8519C198.995 30.2928 199.641 32.2755 201.248 33.6033C202.817 34.9008 205.104 35.4 208.087 35.4V33.4ZM199.867 28.8H224.347V26.8H199.867V28.8ZM225.34 27.9168C225.457 26.9281 225.587 26.074 225.587 24.92H223.587C223.587 25.926 223.478 26.6319 223.354 27.6832L225.34 27.9168ZM225.587 24.92C225.587 19.9625 223.857 16.024 220.74 13.3398C217.644 10.6731 213.292 9.34 208.207 9.34V11.34C212.963 11.34 216.801 12.5869 219.435 14.8552C222.048 17.106 223.587 20.4575 223.587 24.92H225.587ZM208.207 9.34C203.055 9.34 198.626 10.9192 195.475 13.8362C192.317 16.7608 190.527 20.9529 190.527 26H192.527C192.527 21.4471 194.128 17.8092 196.834 15.3038C199.549 12.7908 203.46 11.34 208.207 11.34V9.34ZM190.527 26C190.527 31.5649 192.318 35.7671 195.545 38.561C198.748 41.3344 203.228 42.6 208.387 42.6V40.6C203.526 40.6 199.576 39.4056 196.854 37.049C194.156 34.7129 192.527 31.1151 192.527 26H190.527ZM208.027 18.36C210.591 18.36 212.256 18.7891 213.293 19.5362C214.271 20.2416 214.842 21.3449 214.949 23.1205L216.946 22.9995C216.813 20.8151 216.064 19.0684 214.462 17.9138C212.918 16.8009 210.743 16.36 208.027 16.36V18.36ZM215.947 22.06H199.987V24.06H215.947V22.06ZM200.982 23.1671C201.172 21.3988 201.759 20.2771 202.75 19.5564C203.788 18.8021 205.439 18.36 208.027 18.36V16.36C205.275 16.36 203.116 16.8179 201.574 17.9386C199.986 19.0928 199.223 20.8212 198.993 22.9529L200.982 23.1671ZM254.444 32.66V31.66H253.618L253.462 32.4715L254.444 32.66ZM254.924 32.66H255.924V31.66H254.924V32.66ZM254.924 41H253.924V42H254.924V41ZM263.324 41V42H264.324V41H263.324ZM263.324 0.799999H264.324V-0.200001H263.324V0.799999ZM254.324 0.799999V-0.200001H253.324V0.799999H254.324ZM254.324 18.92V19.92H255.324V18.92H254.324ZM253.784 18.92L252.804 19.1184L252.966 19.92H253.784V18.92ZM242.444 42.6C246.03 42.6 248.981 41.8209 251.203 40.1582C253.44 38.4848 254.82 36.0056 255.426 32.8485L253.462 32.4715C252.928 35.2544 251.758 37.2452 250.005 38.5568C248.237 39.8791 245.758 40.6 242.444 40.6V42.6ZM254.444 33.66H254.924V31.66H254.444V33.66ZM253.924 32.66V41H255.924V32.66H253.924ZM254.924 42H263.324V40H254.924V42ZM264.324 41V0.799999H262.324V41H264.324ZM263.324 -0.200001H254.324V1.8H263.324V-0.200001ZM253.324 0.799999V18.92H255.324V0.799999H253.324ZM254.324 17.92H253.784V19.92H254.324V17.92ZM254.764 18.7216C254.216 16.0139 252.942 13.6408 250.785 11.9526C248.633 10.2675 245.698 9.34 241.964 9.34V11.34C245.369 11.34 247.835 12.1825 249.552 13.5274C251.266 14.8692 252.332 16.7861 252.804 19.1184L254.764 18.7216ZM241.964 9.34C237.255 9.34 233.453 10.9447 230.841 13.9089C228.244 16.856 226.924 21.0318 226.924 26H228.924C228.924 21.3682 230.154 17.714 232.342 15.2311C234.515 12.7653 237.733 11.34 241.964 11.34V9.34ZM226.924 26C226.924 30.9138 228.262 35.079 230.933 38.0264C233.616 40.9879 237.536 42.6 242.444 42.6V40.6C237.992 40.6 234.652 39.1521 232.415 36.6836C230.166 34.201 228.924 30.5662 228.924 26H226.924ZM238.044 26C238.044 23.3873 238.681 21.878 239.757 20.9762C240.875 20.038 242.691 19.56 245.504 19.56V17.56C242.556 17.56 240.143 18.042 238.471 19.4438C236.756 20.882 236.044 23.0927 236.044 26H238.044ZM245.504 19.56C248.311 19.56 250.245 20.0355 251.468 20.9677C252.629 21.8535 253.324 23.2929 253.324 25.7H255.324C255.324 22.887 254.489 20.7565 252.68 19.3773C250.933 18.0444 248.457 17.56 245.504 17.56V19.56ZM253.324 25.7V26.18H255.324V25.7H253.324ZM253.324 26.18C253.324 28.5814 252.617 30.041 251.442 30.9447C250.21 31.8921 248.274 32.38 245.504 32.38V34.38C248.434 34.38 250.908 33.8779 252.661 32.5303C254.471 31.139 255.324 28.9986 255.324 26.18H253.324ZM245.504 32.38C242.692 32.38 240.873 31.9021 239.754 30.9693C238.68 30.0739 238.044 28.5795 238.044 26H236.044C236.044 28.8805 236.758 31.0761 238.474 32.5057C240.144 33.8979 242.556 34.38 245.504 34.38V32.38ZM297.564 23.66L297.443 24.6527L297.452 24.6538L297.564 23.66ZM291.144 22.88L291.264 21.8873L291.264 21.8873L291.144 22.88ZM298.704 21.56H297.704V22.56H298.704V21.56ZM307.704 21.56V22.56H308.704V21.56H307.704ZM286.824 28.22L286.943 27.2271L286.933 27.226L286.824 28.22ZM295.284 29.24L295.418 28.2491L295.411 28.2481L295.403 28.2472L295.284 29.24ZM287.004 30.5H288.004V29.5H287.004V30.5ZM278.004 30.5V29.5H277.004V30.5H278.004ZM293.724 42.6C298.489 42.6 302.418 41.6497 305.19 39.8775C307.997 38.0828 309.604 35.4435 309.604 32.24H307.604C307.604 34.6765 306.42 36.7172 304.113 38.1925C301.77 39.6903 298.259 40.6 293.724 40.6V42.6ZM309.604 32.24C309.604 29.5229 308.77 27.2832 306.725 25.6404C304.747 24.0512 301.757 23.1231 297.675 22.6662L297.452 24.6538C301.411 25.0969 303.941 25.9688 305.472 27.1996C306.938 28.3768 307.604 29.9771 307.604 32.24H309.604ZM297.684 22.6673L291.264 21.8873L291.023 23.8727L297.443 24.6527L297.684 22.6673ZM291.264 21.8873C289.272 21.6458 288.272 21.3746 287.771 21.0759C287.556 20.9481 287.477 20.8399 287.436 20.7547C287.387 20.6534 287.344 20.4877 287.344 20.18H285.344C285.344 20.6523 285.406 21.1541 285.638 21.6303C285.878 22.1227 286.256 22.5019 286.747 22.7941C287.656 23.3354 289.056 23.6342 291.023 23.8727L291.264 21.8873ZM287.344 20.18C287.344 19.7908 287.403 19.5576 287.481 19.407C287.549 19.2746 287.667 19.1361 287.933 18.9997C288.543 18.6862 289.73 18.48 291.984 18.48V16.48C289.737 16.48 288.104 16.6638 287.02 17.2203C286.438 17.5189 285.99 17.9354 285.704 18.4893C285.427 19.0249 285.344 19.6092 285.344 20.18H287.344ZM291.984 18.48C294.73 18.48 296.152 18.8057 296.881 19.2641C297.21 19.4708 297.395 19.7035 297.511 19.9746C297.636 20.2669 297.704 20.6571 297.704 21.2H299.704C299.704 20.5129 299.622 19.8231 299.349 19.1872C299.068 18.5303 298.607 17.9867 297.946 17.5709C296.695 16.7843 294.758 16.48 291.984 16.48V18.48ZM297.704 21.2V21.56H299.704V21.2H297.704ZM298.704 22.56H307.704V20.56H298.704V22.56ZM308.704 21.56V21.38H306.704V21.56H308.704ZM308.704 21.38C308.704 17.4289 307.177 14.3482 304.259 12.2969C301.396 10.2847 297.304 9.34 292.284 9.34V11.34C297.103 11.34 300.722 12.2553 303.109 13.9331C305.44 15.5718 306.704 18.0111 306.704 21.38H308.704ZM292.284 9.34C287.007 9.34 283.071 10.4109 280.426 12.2839C277.742 14.1841 276.464 16.8604 276.464 19.82H278.464C278.464 17.4996 279.435 15.4359 281.582 13.9161C283.767 12.3691 287.24 11.34 292.284 11.34V9.34ZM276.464 19.82C276.464 22.5856 277.398 24.8118 279.236 26.416C281.039 27.9892 283.606 28.8721 286.714 29.214L286.933 27.226C284.041 26.9079 281.928 26.1108 280.551 24.909C279.209 23.7382 278.464 22.0944 278.464 19.82H276.464ZM286.704 29.2128L295.164 30.2328L295.403 28.2472L286.943 27.2272L286.704 29.2128ZM295.149 30.2309C296.953 30.4754 297.86 30.7005 298.327 30.9734C298.518 31.0854 298.588 31.1802 298.628 31.2617C298.677 31.3629 298.724 31.5401 298.724 31.88H300.724C300.724 31.3799 300.658 30.8671 300.428 30.3908C300.188 29.8948 299.812 29.5246 299.336 29.2466C298.468 28.7395 297.155 28.4846 295.418 28.2491L295.149 30.2309ZM298.724 31.88C298.724 32.2315 298.667 32.4304 298.597 32.5556C298.535 32.6664 298.418 32.8026 298.125 32.9416C297.465 33.2549 296.188 33.46 293.784 33.46V35.46C296.179 35.46 297.873 35.2751 298.982 34.7484C299.575 34.4674 300.042 34.0711 300.344 33.5294C300.638 33.0021 300.724 32.4285 300.724 31.88H298.724ZM293.784 33.46C291.214 33.46 289.743 33.2668 288.921 32.8643C288.552 32.6839 288.353 32.4786 288.229 32.2449C288.095 31.9921 288.004 31.6198 288.004 31.04H286.004C286.004 31.8102 286.122 32.5404 286.462 33.182C286.813 33.8426 287.353 34.3236 288.042 34.6607C289.334 35.2932 291.253 35.46 293.784 35.46V33.46ZM288.004 31.04V30.5H286.004V31.04H288.004ZM287.004 29.5H278.004V31.5H287.004V29.5ZM277.004 30.5V30.68H279.004V30.5H277.004ZM277.004 30.68C277.004 34.4669 278.542 37.5117 281.489 39.5698C284.384 41.5927 288.546 42.6 293.724 42.6V40.6C288.761 40.6 285.063 39.6273 282.634 37.9302C280.255 36.2683 279.004 33.8531 279.004 30.68H277.004ZM334.015 41V42H335.015V41H334.015ZM334.015 32.9H335.015V31.9H334.015V32.9ZM324.295 18.38V17.38H323.295V18.38H324.295ZM334.015 18.38V19.38H335.015V18.38H334.015ZM334.015 10.94H335.015V9.94H334.015V10.94ZM324.295 10.94H323.295V11.94H324.295V10.94ZM324.295 5.12H325.295V4.12H324.295V5.12ZM315.295 5.12V4.12H314.295V5.12H315.295ZM315.295 10.94V11.94H316.295V10.94H315.295ZM310.555 10.94V9.94H309.555V10.94H310.555ZM310.555 18.38H309.555V19.38H310.555V18.38ZM315.295 18.38H316.295V17.38H315.295V18.38ZM335.015 41V32.9H333.015V41H335.015ZM334.015 31.9H328.615V33.9H334.015V31.9ZM328.615 31.9C327.034 31.9 326.287 31.6879 325.904 31.3675C325.576 31.0935 325.295 30.5431 325.295 29.12H323.295C323.295 30.6969 323.585 32.0365 324.622 32.9025C325.603 33.7221 327.017 33.9 328.615 33.9V31.9ZM325.295 29.12V18.38H323.295V29.12H325.295ZM324.295 19.38H334.015V17.38H324.295V19.38ZM335.015 18.38V10.94H333.015V18.38H335.015ZM334.015 9.94H324.295V11.94H334.015V9.94ZM325.295 10.94V5.12H323.295V10.94H325.295ZM324.295 4.12H315.295V6.12H324.295V4.12ZM314.295 5.12V10.94H316.295V5.12H314.295ZM315.295 9.94H310.555V11.94H315.295V9.94ZM309.555 10.94V18.38H311.555V10.94H309.555ZM310.555 19.38H315.295V17.38H310.555V19.38ZM314.295 18.38V30.14H316.295V18.38H314.295ZM314.295 30.14C314.295 34.1068 315.418 37.1292 317.629 39.1442C319.823 41.1436 322.926 42 326.575 42V40C323.205 40 320.667 39.2064 318.976 37.6658C317.303 36.1408 316.295 33.7332 316.295 30.14H314.295ZM326.575 42H334.015V40H326.575V42ZM346.986 41V42H347.986V41H346.986ZM357.426 25.82H356.426V26.82H357.426V25.82ZM366.426 25.82V26.82H367.426V25.82H366.426ZM346.866 18.92V19.92H347.708L347.851 19.0903L346.866 18.92ZM346.326 18.92H345.326V19.92H346.326V18.92ZM346.326 10.94H347.326V9.94H346.326V10.94ZM337.986 10.94V9.94H336.986V10.94H337.986ZM337.986 41H336.986V42H337.986V41ZM347.986 41V23.6H345.986V41H347.986ZM347.986 23.6C347.986 21.802 348.335 20.7019 348.944 20.0396C349.537 19.3958 350.568 18.96 352.446 18.96V16.96C350.304 16.96 348.605 17.4542 347.473 18.6854C346.357 19.8981 345.986 21.618 345.986 23.6H347.986ZM352.446 18.96C354.182 18.96 355.1 19.3083 355.608 19.8064C356.11 20.2986 356.426 21.1495 356.426 22.7H358.426C358.426 20.9505 358.082 19.4314 357.009 18.3786C355.941 17.3317 354.37 16.96 352.446 16.96V18.96ZM356.426 22.7V25.82H358.426V22.7H356.426ZM357.426 26.82H366.426V24.82H357.426V26.82ZM367.426 25.82V20.84H365.426V25.82H367.426ZM367.426 20.84C367.426 17.7616 366.706 14.8834 364.983 12.7558C363.233 10.5938 360.556 9.34 356.946 9.34V11.34C360.056 11.34 362.119 12.3962 363.429 14.0142C364.766 15.6665 365.426 18.0383 365.426 20.84H367.426ZM356.946 9.34C353.699 9.34 351.135 10.3427 349.268 12.0744C347.414 13.7947 346.328 16.1584 345.881 18.7497L347.851 19.0903C348.243 16.8216 349.168 14.8953 350.629 13.5406C352.077 12.1973 354.133 11.34 356.946 11.34V9.34ZM346.866 17.92H346.326V19.92H346.866V17.92ZM347.326 18.92V10.94H345.326V18.92H347.326ZM346.326 9.94H337.986V11.94H346.326V9.94ZM336.986 10.94V41H338.986V10.94H336.986ZM337.986 42H346.986V40H337.986V42ZM391.765 34.1V33.1H391.017L390.806 33.8172L391.765 34.1ZM392.245 34.1H393.245V33.1H392.245V34.1ZM392.245 41H391.245V42H392.245V41ZM400.645 41V42H401.645V41H400.645ZM369.745 23.12H368.745V24.12H369.745V23.12ZM378.805 23.12V24.12H379.805V23.12H378.805ZM391.765 24.38L391.867 25.3748L392.765 25.2829V24.38H391.765ZM378.865 25.7L378.763 24.7052L378.763 24.7052L378.865 25.7ZM381.325 30.74L381.408 31.7365L381.424 31.7352L381.439 31.7335L381.325 30.74ZM391.765 29.54L392.764 29.5962L392.83 28.411L391.651 28.5465L391.765 29.54ZM379.525 42.6C382.991 42.6 385.903 41.8666 388.157 40.452C390.424 39.0286 391.967 36.9498 392.724 34.3828L390.806 33.8172C390.183 35.9302 388.936 37.6014 387.094 38.758C385.237 39.9234 382.72 40.6 379.525 40.6V42.6ZM391.765 35.1H392.245V33.1H391.765V35.1ZM391.245 34.1V41H393.245V34.1H391.245ZM392.245 42H400.645V40H392.245V42ZM401.645 41V23.36H399.645V41H401.645ZM401.645 23.36C401.645 19.2273 400.394 15.6782 397.705 13.1711C395.025 10.6727 391.058 9.34 385.885 9.34V11.34C390.733 11.34 394.145 12.5873 396.341 14.6339C398.527 16.6718 399.645 19.6327 399.645 23.36H401.645ZM385.885 9.34C380.77 9.34 376.498 10.6727 373.481 13.0667C370.445 15.4761 368.745 18.9143 368.745 22.94H370.745C370.745 19.5257 372.165 16.6639 374.724 14.6333C377.303 12.5873 381.1 11.34 385.885 11.34V9.34ZM368.745 22.94V23.12H370.745V22.94H368.745ZM369.745 24.12H378.805V22.12H369.745V24.12ZM379.805 23.12V22.88H377.805V23.12H379.805ZM379.805 22.88C379.805 21.3548 380.209 20.5773 380.88 20.1056C381.646 19.5671 382.979 19.26 385.225 19.26V17.26C382.911 17.26 381.034 17.5529 379.73 18.4694C378.331 19.4527 377.805 20.9852 377.805 22.88H379.805ZM385.225 19.26C387.621 19.26 388.955 19.5458 389.705 20.0945C390.357 20.5717 390.765 21.412 390.765 23.24H392.765C392.765 21.168 392.304 19.5183 390.886 18.4805C389.565 17.5142 387.63 17.26 385.225 17.26V19.26ZM390.765 23.24V24.38H392.765V23.24H390.765ZM391.663 23.3852L378.763 24.7052L378.967 26.6948L391.867 25.3748L391.663 23.3852ZM378.763 24.7052C375.448 25.046 372.802 25.9398 370.966 27.4376C369.09 28.9673 368.145 31.0595 368.145 33.56H370.145C370.145 31.6205 370.85 30.1127 372.23 28.9874C373.648 27.8302 375.862 27.014 378.967 26.6948L378.763 24.7052ZM368.145 33.56C368.145 36.366 369.245 38.6778 371.294 40.2611C373.309 41.8196 376.146 42.6 379.525 42.6V40.6C376.424 40.6 374.071 39.8804 372.517 38.6789C370.995 37.5022 370.145 35.794 370.145 33.56H368.145ZM379.205 32.96C379.205 32.5041 379.333 32.3321 379.524 32.2001C379.808 32.0034 380.366 31.8234 381.408 31.7365L381.242 29.7435C380.124 29.8366 379.122 30.0466 378.387 30.5549C377.558 31.1279 377.205 31.9759 377.205 32.96H379.205ZM381.439 31.7335L391.879 30.5335L391.651 28.5465L381.211 29.7465L381.439 31.7335ZM390.767 29.4837C390.664 31.3057 389.946 32.4019 388.658 33.1116C387.268 33.8771 385.127 34.24 382.105 34.24V36.24C385.204 36.24 387.772 35.8829 389.623 34.8634C391.574 33.7881 392.626 32.0343 392.764 29.5962L390.767 29.4837ZM382.105 34.24C380.827 34.24 380.071 34.0726 379.66 33.8386C379.476 33.7336 379.378 33.6248 379.319 33.5177C379.258 33.406 379.205 33.2348 379.205 32.96H377.205C377.205 33.4952 377.31 34.014 377.567 34.4817C377.827 34.954 378.209 35.3139 378.67 35.5764C379.549 36.0774 380.743 36.24 382.105 36.24V34.24ZM414.807 41V42H415.807V41H414.807ZM430.047 41H429.047V42H430.047V41ZM439.047 41V42H440.047V41H439.047ZM414.687 20.18V21.18H415.544L415.675 20.3329L414.687 20.18ZM414.147 20.18H413.147V21.18H414.147V20.18ZM414.147 10.94H415.147V9.94H414.147V10.94ZM405.807 10.94V9.94H404.807V10.94H405.807ZM405.807 41H404.807V42H405.807V41ZM415.807 41V25.82H413.807V41H415.807ZM415.807 25.82C415.807 23.3699 416.303 21.8568 417.242 20.929C418.186 19.9968 419.795 19.44 422.547 19.44V17.44C419.599 17.44 417.338 18.0232 415.837 19.506C414.331 20.9932 413.807 23.1701 413.807 25.82H415.807ZM422.547 19.44C425.226 19.44 426.78 19.9434 427.683 20.7898C428.569 21.6193 429.047 22.9859 429.047 25.28H431.047C431.047 22.7741 430.535 20.7207 429.051 19.3302C427.584 17.9566 425.388 17.44 422.547 17.44V19.44ZM429.047 25.28V41H431.047V25.28H429.047ZM430.047 42H439.047V40H430.047V42ZM440.047 41V22.28H438.047V41H440.047ZM440.047 22.28C440.047 18.7612 439.015 15.5109 436.802 13.1314C434.576 10.7391 431.261 9.34 426.927 9.34V11.34C430.813 11.34 433.558 12.5809 435.337 14.4936C437.129 16.4191 438.047 19.1388 438.047 22.28H440.047ZM426.927 9.34C422.782 9.34 419.663 10.6118 417.473 12.6356C415.296 14.6482 414.116 17.3305 413.699 20.0271L415.675 20.3329C416.038 17.9895 417.048 15.7518 418.831 14.1044C420.601 12.4682 423.213 11.34 426.927 11.34V9.34ZM414.687 19.18H414.147V21.18H414.687V19.18ZM415.147 20.18V10.94H413.147V20.18H415.147ZM414.147 9.94H405.807V11.94H414.147V9.94ZM404.807 10.94V41H406.807V10.94H404.807ZM405.807 42H414.807V40H405.807V42ZM468.62 30.44V29.44H467.813L467.643 30.2287L468.62 30.44ZM469.1 30.44H470.1V29.44H469.1V30.44ZM454.16 39.92H455.16V38.92H454.16V39.92ZM445.16 39.92V38.92H444.16V39.92H445.16ZM478.1 10.94H479.1V9.94H478.1V10.94ZM469.7 10.94V9.94H468.7V10.94H469.7ZM469.7 18.2V19.2H470.7V18.2H469.7ZM469.22 18.2L468.236 18.3809L468.387 19.2H469.22V18.2ZM457.4 38.94C460.907 38.94 463.693 38.1413 465.752 36.6683C467.823 35.1868 469.071 33.0841 469.597 30.6513L467.643 30.2287C467.209 32.2359 466.207 33.8832 464.588 35.0417C462.957 36.2087 460.613 36.94 457.4 36.94V38.94ZM468.62 31.44H469.1V29.44H468.62V31.44ZM468.1 30.44V37.22H470.1V30.44H468.1ZM468.1 37.22C468.1 40.144 467.646 41.5004 466.843 42.2203C466.004 42.9718 464.505 43.3 461.6 43.3V45.3C464.455 45.3 466.706 45.0282 468.177 43.7097C469.684 42.3596 470.1 40.176 470.1 37.22H468.1ZM461.6 43.3C460.091 43.3 458.917 43.2366 458.004 43.0993C457.086 42.9611 456.496 42.757 456.11 42.5187C455.469 42.124 455.16 41.4942 455.16 39.92H453.16C453.16 41.7058 453.511 43.266 455.06 44.2213C455.769 44.658 456.656 44.9189 457.707 45.077C458.763 45.2359 460.049 45.3 461.6 45.3V43.3ZM454.16 38.92H445.16V40.92H454.16V38.92ZM444.16 39.92C444.16 44.0046 445.831 47.2787 448.841 49.4997C451.815 51.6932 456.009 52.8 461 52.8V50.8C456.271 50.8 452.545 49.7468 450.029 47.8903C447.549 46.0613 446.16 43.3954 446.16 39.92H444.16ZM461 52.8C466.493 52.8 471.04 51.606 474.224 48.9107C477.438 46.1895 479.1 42.0792 479.1 36.62H477.1C477.1 41.6608 475.582 45.1405 472.931 47.3843C470.25 49.654 466.246 50.8 461 50.8V52.8ZM479.1 36.62V10.94H477.1V36.62H479.1ZM478.1 9.94H469.7V11.94H478.1V9.94ZM468.7 10.94V18.2H470.7V10.94H468.7ZM469.7 17.2H469.22V19.2H469.7V17.2ZM470.203 18.0191C469.676 15.1492 468.19 12.9455 465.978 11.479C463.788 10.0277 460.954 9.34 457.76 9.34V11.34C460.686 11.34 463.102 11.9723 464.872 13.146C466.62 14.3045 467.804 16.0308 468.236 18.3809L470.203 18.0191ZM457.76 9.34C453.06 9.34 449.176 10.7532 446.461 13.37C443.742 15.9903 442.3 19.718 442.3 24.14H444.3C444.3 20.162 445.588 16.9897 447.849 14.81C450.114 12.6268 453.46 11.34 457.76 11.34V9.34ZM442.3 24.14C442.3 28.5743 443.656 32.302 446.293 34.9218C448.929 37.5415 452.73 38.94 457.4 38.94V36.94C453.13 36.94 449.881 35.6685 447.702 33.5032C445.524 31.338 444.3 28.1657 444.3 24.14H442.3ZM453.36 24.14C453.36 22.1177 453.921 20.9888 454.913 20.2942C455.998 19.5354 457.8 19.14 460.64 19.14V17.14C457.72 17.14 455.382 17.5246 453.767 18.6558C452.059 19.8512 451.36 21.7223 451.36 24.14H453.36ZM460.64 19.14C463.378 19.14 465.255 19.5306 466.426 20.2742C467.503 20.9578 468.1 22.0159 468.1 23.78H470.1C470.1 21.4641 469.257 19.7022 467.499 18.5858C465.835 17.5294 463.482 17.14 460.64 17.14V19.14ZM468.1 23.78V24.44H470.1V23.78H468.1ZM468.1 24.44C468.1 26.2475 467.508 27.333 466.427 28.033C465.251 28.7941 463.348 29.2 460.52 29.2V31.2C463.452 31.2 465.839 30.7959 467.513 29.712C469.282 28.567 470.1 26.7725 470.1 24.44H468.1ZM460.52 29.2C457.748 29.2 455.978 28.7918 454.909 28.0231C453.923 27.3139 453.36 26.1636 453.36 24.14H451.36C451.36 26.5564 452.057 28.4361 453.741 29.6469C455.342 30.7982 457.652 31.2 460.52 31.2V29.2ZM492.472 41V42H493.472V41H492.472ZM492.472 0.799999H493.472V-0.200001H492.472V0.799999ZM483.472 0.799999V-0.200001H482.472V0.799999H483.472ZM483.472 41H482.472V42H483.472V41ZM493.472 41V0.799999H491.472V41H493.472ZM492.472 -0.200001H483.472V1.8H492.472V-0.200001ZM482.472 0.799999V41H484.472V0.799999H482.472ZM483.472 42H492.472V40H483.472V42ZM529.643 29.84H530.643V28.84H529.643V29.84ZM520.643 29.84V28.84H519.643V29.84H520.643ZM505.223 27.8V26.8H504.17L504.224 27.8519L505.223 27.8ZM529.703 27.8V28.8H530.592L530.696 27.9168L529.703 27.8ZM521.303 23.06V24.06H522.365L522.301 22.9995L521.303 23.06ZM505.343 23.06L504.349 22.9529L504.229 24.06H505.343V23.06ZM513.743 42.6C518.66 42.6 522.852 41.4263 525.846 39.3204C528.861 37.1991 530.643 34.1342 530.643 30.5H528.643C528.643 33.4058 527.245 35.8909 524.695 37.6846C522.123 39.4937 518.366 40.6 513.743 40.6V42.6ZM530.643 30.5V29.84H528.643V30.5H530.643ZM529.643 28.84H520.643V30.84H529.643V28.84ZM519.643 29.84V30.44H521.643V29.84H519.643ZM519.643 30.44C519.643 30.9658 519.548 31.3675 519.383 31.6832C519.221 31.9919 518.962 32.2758 518.538 32.526C517.644 33.0526 516.07 33.4 513.443 33.4V35.4C516.156 35.4 518.181 35.0574 519.553 34.249C520.261 33.8316 520.801 33.2868 521.155 32.6112C521.505 31.9425 521.643 31.2042 521.643 30.44H519.643ZM513.443 33.4C510.606 33.4 508.903 32.9092 507.877 32.0617C506.889 31.2444 506.335 29.9272 506.221 27.7481L504.224 27.8519C504.351 30.2928 504.997 32.2755 506.603 33.6033C508.173 34.9008 510.459 35.4 513.443 35.4V33.4ZM505.223 28.8H529.703V26.8H505.223V28.8ZM530.696 27.9168C530.812 26.9281 530.943 26.074 530.943 24.92H528.943C528.943 25.926 528.833 26.6319 528.71 27.6832L530.696 27.9168ZM530.943 24.92C530.943 19.9625 529.212 16.024 526.095 13.3398C522.999 10.6731 518.647 9.34 513.563 9.34V11.34C518.318 11.34 522.156 12.5869 524.79 14.8552C527.404 17.106 528.943 20.4575 528.943 24.92H530.943ZM513.563 9.34C508.41 9.34 503.982 10.9192 500.831 13.8362C497.672 16.7608 495.883 20.9529 495.883 26H497.883C497.883 21.4471 499.484 17.8092 502.19 15.3038C504.904 12.7908 508.815 11.34 513.563 11.34V9.34ZM495.883 26C495.883 31.5649 497.674 35.7671 500.901 38.561C504.104 41.3344 508.584 42.6 513.743 42.6V40.6C508.882 40.6 504.932 39.4056 502.21 37.049C499.512 34.7129 497.883 31.1151 497.883 26H495.883ZM513.383 18.36C515.947 18.36 517.612 18.7891 518.648 19.5362C519.627 20.2416 520.197 21.3449 520.305 23.1205L522.301 22.9995C522.169 20.8151 521.419 19.0684 519.818 17.9138C518.274 16.8009 516.099 16.36 513.383 16.36V18.36ZM521.303 22.06H505.343V24.06H521.303V22.06ZM506.337 23.1671C506.527 21.3988 507.114 20.2771 508.106 19.5564C509.144 18.8021 510.795 18.36 513.383 18.36V16.36C510.631 16.36 508.472 16.8179 506.93 17.9386C505.342 19.0928 504.578 20.8212 504.349 22.9529L506.337 23.1671Z" fill="#06C799"/>
</svg>
