<svg width="953" height="171" viewBox="0 0 953 171" fill="none" xmlns="http://www.w3.org/2000/svg">
<path d="M23.7818 24.0942H0V132.727H66.6477V110.707H23.7818V24.0942Z" fill="#06C799"/>
<path d="M67.033 167.959C71.4371 169.281 76.5751 170.014 82.0067 170.014C94.9252 170.014 103.146 163.702 109.312 148.728L146.599 59.3265H123.111L105.348 106.45L89.3468 59.3265H65.1246L94.6316 135.223L93.3104 138.746C90.3744 146.673 87.1448 149.022 79.5111 149.022H67.033V167.959Z" fill="#06C799"/>
<path d="M206.41 59.3265C203.327 58.5925 200.391 58.2989 197.749 58.2989C187.913 58.2989 181.454 63.1433 178.371 70.3366L177.197 59.4733H155.911V132.727H178.518V100.871C178.518 86.3379 186.299 80.6126 199.217 80.6126H206.41V59.3265Z" fill="#06C799"/>
<path d="M237.142 134.635C248.152 134.635 257.841 129.791 260.19 123.038L261.658 132.727H281.623V89.8611C281.623 68.8686 269.585 56.9777 248.299 56.9777C227.307 56.9777 213.654 67.841 213.654 84.4295H232.445C232.445 77.8234 237.583 74.1534 247.125 74.1534C255.199 74.1534 259.603 77.9702 259.603 85.1635V86.3379L239.051 87.9527C221.434 89.2739 211.892 97.6416 211.892 111.147C211.892 125.534 221.581 134.635 237.142 134.635ZM245.069 117.9C238.17 117.9 234.94 115.404 234.94 110.12C234.94 105.422 238.463 103.22 248.299 102.339L259.75 101.312V105.275C259.75 113.643 253.731 117.9 245.069 117.9Z" fill="#06C799"/>
<path d="M327.905 54.9217C327.905 69.3082 336.566 78.7034 353.008 82.6671L370.771 87.0711C382.074 89.7135 387.359 95.8792 387.359 105.274C387.359 117.312 377.523 124.799 362.109 124.799C347.723 124.799 338.034 117.606 337.447 106.596H326.583C327.905 123.771 341.704 134.488 362.109 134.488C383.836 134.488 397.929 122.891 397.929 104.687C397.929 90.4475 389.414 81.0522 372.973 77.0886L354.916 72.6846C343.906 69.8954 338.474 64.0233 338.474 54.7749C338.474 42.884 348.163 35.2503 362.99 35.2503C376.202 35.2503 384.276 42.0032 385.451 53.8941H396.167C394.552 36.2779 382.074 25.7083 363.137 25.7083C341.998 25.7083 327.905 37.3055 327.905 54.9217Z" fill="white"/>
<path d="M431.029 132.726V70.189H445.269V61.6745H431.029V39.214H421.046V61.6745H406.807V70.189H421.046V132.726H431.029Z" fill="white"/>
<path d="M495.6 60.7937C493.104 60.2065 491.196 60.0597 488.994 60.0597C479.011 60.0597 471.524 65.0509 468.735 72.6846L468.001 61.6745H458.459V132.726H468.588V92.2091C468.588 78.7034 476.956 69.8954 490.021 69.8954H495.6V60.7937Z" fill="white"/>
<path d="M526.603 134.488C538.641 134.488 548.33 129.203 552.734 120.248L554.055 132.726H562.57V86.7775C562.57 67.987 550.532 59.7661 534.09 59.7661C516.621 59.7661 504.877 69.0146 504.877 83.4011H514.125C514.125 73.859 521.465 68.2806 533.797 68.2806C544.219 68.2806 552.587 72.6846 552.587 86.6307V88.9795L529.099 90.8879C512.51 92.2091 502.528 100.43 502.528 113.495C502.528 125.973 511.483 134.488 526.603 134.488ZM528.952 126.267C519.263 126.267 512.804 121.863 512.804 113.202C512.804 105.274 518.236 99.4024 531.595 98.228L552.587 96.6132V100.43C552.587 115.844 543.926 126.267 528.952 126.267Z" fill="white"/>
<path d="M597.9 132.726V70.189H612.14V61.6745H597.9V39.214H587.918V61.6745H573.678V70.189H587.918V132.726H597.9Z" fill="white"/>
<path d="M654.414 134.488C671.15 134.488 682.16 126.414 685.977 111.44H676.288C673.645 120.835 666.158 125.827 654.561 125.827C639.294 125.827 630.192 115.844 629.458 98.5216H685.977V93.5303C685.977 73.4186 672.911 59.7661 653.68 59.7661C633.422 59.7661 619.622 75.0334 619.622 97.2004C619.622 119.514 633.569 134.488 654.414 134.488ZM653.68 68.4274C667.039 68.4274 675.847 77.529 675.847 91.1815H629.752C631.513 77.2354 640.321 68.4274 653.68 68.4274Z" fill="white"/>
<path d="M697.327 95.1452C697.327 114.523 709.659 130.524 729.917 130.524C742.102 130.524 751.937 124.652 756.782 114.67V131.552C756.782 146.379 747.093 156.214 732.559 156.214C719.788 156.214 710.98 149.462 708.778 138.011H698.648C701.438 155.187 714.209 165.463 732.413 165.463C753.258 165.463 766.764 151.664 766.764 130.524V61.6745H757.956L756.928 75.9142C752.378 65.4913 742.982 59.7661 730.651 59.7661C709.805 59.7661 697.327 75.7674 697.327 95.1452ZM707.456 94.9984C707.456 80.6119 716.265 68.721 731.532 68.721C747.093 68.721 755.901 79.8778 755.901 94.9984C755.901 110.266 746.799 121.423 731.385 121.423C716.411 121.423 707.456 109.532 707.456 94.9984Z" fill="white"/>
<path d="M780.708 163.701C783.938 164.435 787.167 164.729 791.424 164.729C801.554 164.729 808.453 160.178 812.564 149.021L845.154 61.6745H834.731L812.27 123.625L789.369 61.6745H778.653L807.426 136.983L804.343 145.351C800.82 154.893 794.654 155.334 788.488 155.334H780.708V163.701Z" fill="white"/>
<g clip-path="url(#clip0_9_355)">
<path d="M869.503 51.2263C873.117 53.6901 877.152 53.3148 881.095 53.3502C899.117 53.3502 917.133 53.3502 935.141 53.3502C939.777 53.3502 941.669 54.6458 943.419 58.8087C946.219 65.4637 949.076 72.0972 951.904 78.7451C952.209 79.3805 952.448 80.0448 952.619 80.7277C952.712 81.0549 952.733 81.3981 952.679 81.734C952.626 82.0699 952.5 82.3904 952.31 82.6736C952.12 82.9567 951.871 83.1957 951.579 83.3743C951.287 83.5528 950.959 83.6669 950.619 83.7082C950.036 83.8018 949.444 83.8351 948.855 83.8074C929.589 83.8074 910.329 83.8074 891.073 83.8074C889.876 83.8023 888.682 83.7026 887.502 83.5098C886.076 83.3448 884.722 82.7957 883.589 81.922C882.456 81.0483 881.586 79.8833 881.073 78.5539C878.124 71.5167 875.102 64.5079 872.11 57.4847C871.267 55.3986 870.398 53.3125 869.503 51.2263Z" fill="#06C799"/>
<path d="M896.387 47.4952C891.294 47.4952 886.194 47.5446 881.102 47.4596C879.69 47.4372 878.29 47.1984 876.952 46.7516C876.616 46.6655 876.305 46.5014 876.045 46.2728C875.785 46.0443 875.584 45.7578 875.458 45.437C875.331 45.1162 875.284 44.7705 875.319 44.4279C875.354 44.0853 875.471 43.7556 875.659 43.4665C876.224 42.3667 876.946 41.3533 877.802 40.4576C886.849 30.9849 895.896 21.5313 904.943 12.0964C908 8.90575 911.052 5.70565 914.1 2.49616C914.257 2.32624 914.414 2.1491 914.585 1.98626C916.635 -0.0385516 918.364 0.209226 919.521 2.85706C922.235 9.10141 924.856 15.3814 927.52 21.6541C927.999 22.7868 928.463 23.9264 928.949 25.0591C929.563 26.342 929.756 27.7839 929.499 29.1811C929.243 30.5784 928.551 31.8604 927.52 32.8469C923.235 37.4062 918.985 41.9658 914.664 46.4543C914.002 47.067 913.141 47.426 912.235 47.4669C906.9 47.5377 901.629 47.4952 896.387 47.4952Z" fill="#06C79A"/>
</g>
<defs>
<clipPath id="clip0_9_355">
<rect width="83.1873" height="83.1873" fill="white" transform="translate(869.503 0.605713)"/>
</clipPath>
</defs>
</svg>
