<svg width="25" height="25" viewBox="0 0 25 25" fill="none" xmlns="http://www.w3.org/2000/svg">
<circle cx="12.5" cy="12.5" r="12.5" fill="#233E37"/>
<path d="M13.095 5.95239V19.0476" stroke="#06C799" stroke-linecap="round" stroke-linejoin="round"/>
<path d="M16.0712 8.33337H11.6069C11.0544 8.33337 10.5245 8.55287 10.1338 8.94357C9.74308 9.33427 9.52359 9.86417 9.52359 10.4167C9.52359 10.9692 9.74308 11.4991 10.1338 11.8898C10.5245 12.2805 11.0544 12.5 11.6069 12.5H14.5831C15.1356 12.5 15.6656 12.7195 16.0563 13.1102C16.447 13.5009 16.6664 14.0308 16.6664 14.5834C16.6664 15.1359 16.447 15.6658 16.0563 16.0565C15.6656 16.4472 15.1356 16.6667 14.5831 16.6667H9.52359" stroke="#06C799" stroke-linecap="round" stroke-linejoin="round"/>
</svg>
