<svg width="174" height="13" viewBox="0 0 174 13" fill="none" xmlns="http://www.w3.org/2000/svg">
<path d="M0.704 3.52C0.704 5.088 1.648 6.112 3.44 6.544L5.376 7.024C6.608 7.312 7.184 7.984 7.184 9.008C7.184 10.32 6.112 11.136 4.432 11.136C2.864 11.136 1.808 10.352 1.744 9.152H0.56C0.704 11.024 2.208 12.192 4.432 12.192C6.8 12.192 8.336 10.928 8.336 8.944C8.336 7.392 7.408 6.368 5.616 5.936L3.648 5.456C2.448 5.152 1.856 4.512 1.856 3.504C1.856 2.208 2.912 1.376 4.528 1.376C5.968 1.376 6.848 2.112 6.976 3.408H8.144C7.968 1.488 6.608 0.335999 4.544 0.335999C2.24 0.335999 0.704 1.6 0.704 3.52ZM10.9714 1.6H14.4914V12H15.6434V1.6H19.1794V0.544H10.9714V1.6ZM23.8371 12V7.248H27.1811L29.5171 12H30.7971L28.3491 7.056C29.8211 6.656 30.6851 5.504 30.6851 3.856C30.6851 1.824 29.2771 0.544 26.9571 0.544H22.6851V12H23.8371ZM23.8371 1.584H26.9571C28.5251 1.584 29.5011 2.4 29.5011 3.888C29.5011 5.344 28.5731 6.208 26.9891 6.208H23.8371V1.584ZM34.8395 12L35.9595 8.96H41.2395L42.3595 12H43.5595L39.3035 0.544H37.8795L33.6715 12H34.8395ZM38.4395 2.16C38.5035 2 38.5675 1.792 38.5835 1.696C38.5995 1.808 38.6795 2 38.7275 2.16L40.8715 7.952H36.3115L38.4395 2.16ZM44.8251 1.6H48.3451V12H49.4971V1.6H53.0331V0.544H44.8251V1.6ZM63.4029 12V10.944H57.6909V6.768H62.8589V5.728H57.6909V1.6H63.3869V0.544H56.5389V12H63.4029ZM72.462 1.44C74.142 1.44 75.486 2.24 75.966 3.808H77.214C76.766 1.728 74.894 0.351999 72.478 0.351999C69.198 0.351999 66.958 2.816 66.958 6.32C66.958 9.856 69.198 12.192 72.446 12.192C74.302 12.192 75.742 11.328 76.35 10.192L76.462 12.016H77.374V5.808H72.142V6.832H76.286V7.424C76.286 10.176 74.414 11.104 72.494 11.104C69.918 11.104 68.158 9.296 68.158 6.32C68.158 3.392 69.822 1.44 72.462 1.44ZM83.6911 7.216V12H84.8431V7.216L88.6831 0.544H87.4191L84.6191 5.488C84.4111 5.888 84.4111 5.888 84.2671 6.176C84.1551 5.92 84.0591 5.728 83.9311 5.488L81.0991 0.544H79.8031L83.6911 7.216ZM108.724 6.272C108.724 2.784 106.484 0.335999 103.268 0.335999C100.068 0.335999 97.8117 2.8 97.8117 6.272C97.8117 9.744 100.052 12.192 103.268 12.192C106.468 12.192 108.724 9.744 108.724 6.272ZM107.54 6.272C107.54 9.12 105.796 11.088 103.268 11.088C100.74 11.088 99.0117 9.136 99.0117 6.272C99.0117 3.408 100.74 1.456 103.268 1.456C105.796 1.456 107.54 3.408 107.54 6.272ZM113.885 12V2.464L120.205 12H121.341V0.544H120.205V10.08L113.901 0.544H112.733V12H113.885Z" fill="white"/>
<path d="M133.568 0.544H132.416V12H138.832V10.944H133.568V0.544ZM144.039 7.216V12H145.191V7.216L149.031 0.544H147.767L144.967 5.488C144.759 5.888 144.759 5.888 144.615 6.176C144.503 5.92 144.407 5.728 144.279 5.488L141.447 0.544H140.151L144.039 7.216ZM153.658 12V7.248H157.002L159.338 12H160.618L158.17 7.056C159.642 6.656 160.506 5.504 160.506 3.856C160.506 1.824 159.098 0.544 156.778 0.544H152.506V12H153.658ZM153.658 1.584H156.778C158.346 1.584 159.322 2.4 159.322 3.888C159.322 5.344 158.394 6.208 156.81 6.208H153.658V1.584ZM164.661 12L165.781 8.96H171.061L172.181 12H173.381L169.125 0.544H167.701L163.493 12H164.661ZM168.261 2.16C168.325 2 168.389 1.792 168.405 1.696C168.421 1.808 168.501 2 168.549 2.16L170.693 7.952H166.133L168.261 2.16Z" fill="#06C799"/>
</svg>
